# xmcd
#
# Track frame offsets: 
#        150
#        24527
#        57682
#        83950
#        119355
#        146040
#        164905
#        188880
#        206145
#        227280
#        253057
#        269990
#        291405
#        316272
#
# Disc length: 4542 seconds
#
# Revision: 30
# Processed by: cddbd v1.5.2PL0 Copyright (c) Steve Scherf et al.
# Submitted via: ExactAudioCopyFreeDBPlugin 1.0
#
DISCID=e411bc0e
DTITLE=Eric Clapton - Pilgrim
DYEAR=1998
DGENRE=Blues
TTITLE0=My Father's Eyes
TTITLE1=River Of Tears
TTITLE2=Pilgrim
TTITLE3=Broken Hearted
TTITLE4=One Chance
TTITLE5=Circus
TTITLE6=Going Down Slow
TTITLE7=Fall Like Rain
TTITLE8=Born In Time
TTITLE9=Sick And Tired
TTITLE10=Needs His Woman
TTITLE11=She's Gone
TTITLE12=You Were There
TTITLE13=Inside Of Me
EXTD=YEAR: 1998
EXTT0=
EXTT1=
EXTT2=
EXTT3=
EXTT4=
EXTT5=
EXTT6=
EXTT7=
EXTT8=
EXTT9=
EXTT10=
EXTT11=
EXTT12=
EXTT13=
PLAYORDER=
